<svg xmlns="http://www.w3.org/2000/svg" viewBox="0 0 1370.9796 1250.9" class="animated jello" width="1370.98" height="1250.9"><path d="M422.18 8.6c-23.316 16.2-124.057 88.1-273.199 195.2l-148.901 106.9v313.9l-.08 313.9 32.401 23.4c37.386 27 166.83 119.9 232.597 167.1 56.602 40.5 154.85 110.3 162.81 115.6 3.296 2.2 6.754 4 7.638 3.9.884-.1 20.422-13.7 43.416-30.2 107.816-77.2 182.588-130.7 192.156-137.3 5.789-4 11.015-7.9 11.738-8.7 1.608-1.7-5.387-6.5 168.759 118.2 26.291 18.8 56.119 40.1 66.169 47.3l18.331 13.1 13.829-9.6c15.598-10.8 107.414-76.2 155.735-110.8 37.225-26.7 141.504-101.5 213.462-153.3 27.899-20 50.893-36.7 51.295-37.1.322-.4.563-141.8.563-314.2l.08-313.4-1.849-1.7c-1.528-1.4-101.465-73.1-269.983-194-47.677-34.2-130.971-93.4-148.498-105.6l-14.633-10.2-34.813 24.9c-19.135 13.6-58.29 41.7-87.073 62.3-28.703 20.6-65.124 46.6-80.802 57.8-15.678 11.2-32.803 23.4-37.949 27-5.146 3.7-9.648 6.4-10.05 6-.322-.5-9.648-7.2-20.743-15-11.015-7.9-62.953-45-115.374-82.5-113.364-81.2-113.846-81.5-114.248-81.5-.241 0-5.95 3.9-12.784 8.6zm47.999 133.5c19.376 13.9 55.878 40 81.043 58.2 25.246 18.2 47.356 34.1 49.205 35.5 1.93 1.3 3.618 2.7 3.779 3 .161.4-20.663 15.6-46.31 33.7-25.728 18.2-48.481 34.3-50.652 36l-4.02 3v19l25.165 18c117.545 83.9 149.946 107 150.509 107 .322 0 .563-30.8.563-68.4v-68.5l-5.548-4-5.628-4 9.326-6.7c10.774-7.7 8.442-7.9 20.904 1.3l6.914 5-5.387 3.7c-2.975 2.1-5.708 4.2-6.11 4.7-.804 1-1.286 136.2-.482 137.1.322.4 36.582-25.3 141.021-100l35.698-25.4v-17.6l-41.326-30.2c-55.235-40.4-59.416-43.6-58.933-44.5.241-.5 1.93-1.9 3.859-3.2 1.849-1.4 24.04-17.3 49.205-35.5 59.014-42.5 107.897-77.6 111.193-79.7 2.09-1.3 2.975-1.4 4.422-.5 1.93 1.3 179.453 128.5 285.581 204.7l66.732 47.9v508.5l-92.862 66.7c-75.013 53.8-203.814 146.2-252.215 180.9-8.04 5.7-9.085 6.3-10.854 5.1-3.779-2.5-103.153-73.8-128.077-91.9-38.592-28.1-38.994-28.4-38.994-29 0-.7 16.884-13.1 67.295-49.5l33.286-24v-56.9c-.08-31.3-.241-57.1-.482-57.4-.161-.3-.884.1-1.608.8-.643.7-1.206 1-1.206.6 0-.9-4.824 2.2-6.754 4.3-.804.9-1.688 1.5-2.01 1.5-.241-.1-1.769.6-3.296 1.6-4.744 3-65.285 46-82.008 58.2-13.99 10.2-57.647 41.1-79.114 56l-7.96 5.5-31.838-22.7c-17.527-12.5-43.979-31.4-58.772-42-29.748-21.3-50.25-36-73.888-52.9-8.603-6.2-15.919-11.3-16.321-11.4-.724-.2-.965 58.2-.241 59.1.241.3.402 13.4.402 29.1l-.08 28.5 9.889 7.1c5.467 4 25.085 18.1 43.657 31.4 38.11 27.5 45.104 32.9 44.14 34.1-.804.9-65.285 47.4-125.987 90.9l-40.763 29.2-74.209-53.2c-40.763-29.3-78.631-56.4-84.179-60.4-25.648-18.4-143.031-102.7-166.428-119.5-14.392-10.3-26.934-19.3-27.899-19.9l-1.849-1.2v-254.2l.08-254.2 122.771-88c154.368-110.7 231.311-165.5 232.195-165.5.161 0 16.08 11.3 35.456 25.1z"/><path d="M502.58 350.4c-.241 7.2.08 35 .402 35.4.241.3.402 23.3.402 51.1-.08 39.9.161 50.7.965 51.6.563.7 30.713 22.4 66.973 48.2 92.54 66 107.254 76.4 107.736 76.4.241-.1.482-30.8.482-68.4v-68.2l-15.517-11.4c-21.226-15.6-158.709-114-160.237-114.7-.643-.4-1.206-.3-1.206 0z"/><path d="M852.722 361.7c-8.844 6.5-48.401 34.9-87.877 63.3l-71.797 51.5.08 68.5c0 49.4.241 68.4.884 68.2 1.045-.3 72.119-51 133.223-94.9l42.853-30.8v-68.5c0-37.7-.322-68.6-.643-68.7-.402-.1-7.879 5-16.723 11.4z"/><path d="M502.58 506.5c-.241 6.2.08 34.9.402 35.3.241.3.402 23.5.402 51.6l-.08 50.9 38.431 27.5c94.631 67.5 136.439 97.3 137.082 97.5.322.1.643-30.6.643-68.3l.08-68.5-14.311-10.4c-29.105-21-161.925-116.1-162.247-116.1-.241 0-.402.2-.402.5z"/><path d="M863.978 509.8c-2.653 2-42.21 30.5-87.877 63.2l-82.973 59.6v68.4c0 37.6.08 68.5.241 68.6.161.2 18.17-12.4 40.039-27.9 85.224-60.7 133.062-95 134.831-96.5l1.849-1.7v-68.5c-.08-37.7-.322-68.6-.643-68.7-.402-.1-2.814 1.5-5.467 3.5z"/><path d="M502.58 663.4c-.241 7.2.08 36 .402 36.4.241.3.402 23.3.402 51 0 27.8.241 50.9.563 51.3.563.6 40.843 29.4 136.358 97.6 21.226 15.1 38.672 27.3 38.833 27 .161-.2.322-30.9.322-68.2 0-53.5-.161-68.1-.965-69.1-.884-1-26.13-19.1-85.465-61.6-51.215-36.7-85.546-61.3-87.797-63-1.447-1.1-2.653-1.7-2.653-1.4z"/><path d="M855.134 673.7c-7.96 5.8-47.356 34.2-87.636 63-40.2 28.9-73.405 52.8-73.807 53.2-.322.4-.563 31.3-.563 68.7 0 58.8.161 67.9 1.206 67.8 1.126-.2 44.22-30.7 134.107-95.1l41.647-29.8-.08-68.9c0-37.9-.08-69-.161-69.1-.161-.2-6.754 4.5-14.713 10.2z"/></svg>