<?xml version="1.0" encoding="utf-8"?>
<!-- Generator: Adobe Illustrator 23.0.0, SVG Export Plug-In . SVG Version: 6.00 Build 0)  -->
<svg version="1.1" id="Слой_1" xmlns="http://www.w3.org/2000/svg" xmlns:xlink="http://www.w3.org/1999/xlink" x="0px" y="0px"
	 viewBox="0 0 1371 1250.9" style="enable-background:new 0 0 1371 1250.9;" xml:space="preserve">
<style type="text/css">
	.st0{fill:#FFFFFF;}
</style>
<path class="st0" d="M422.2,8.6C398.9,24.8,298.1,96.7,149,203.8L0.1,310.7v313.9L0,938.5l32.4,23.4
	c37.4,27,166.8,119.9,232.6,167.1c56.6,40.5,154.9,110.3,162.8,115.6c3.3,2.2,6.8,4,7.6,3.9s20.4-13.7,43.4-30.2
	c107.8-77.2,182.6-130.7,192.2-137.3c5.8-4,11-7.9,11.7-8.7c1.6-1.7-5.4-6.5,168.8,118.2c26.3,18.8,56.1,40.1,66.2,47.3l18.3,13.1
	l13.8-9.6c15.6-10.8,107.4-76.2,155.7-110.8c37.2-26.7,141.5-101.5,213.5-153.3c27.9-20,50.9-36.7,51.3-37.1
	c0.3-0.4,0.6-141.8,0.6-314.2l0.1-313.4l-1.8-1.7c-1.5-1.4-101.5-73.1-270-194c-47.7-34.2-131-93.4-148.5-105.6L936,1l-34.8,24.9
	c-19.1,13.6-58.3,41.7-87.1,62.3c-28.7,20.6-65.1,46.6-80.8,57.8s-32.8,23.4-37.9,27c-5.1,3.7-9.6,6.4-10,6
	c-0.3-0.5-9.6-7.2-20.7-15c-11-7.9-63-45-115.4-82.5C435.8,0.3,435.4,0,435,0C434.7,0,429,3.9,422.2,8.6L422.2,8.6z M470.2,142.1
	c19.4,13.9,55.9,40,81,58.2c25.2,18.2,47.4,34.1,49.2,35.5c1.9,1.3,3.6,2.7,3.8,3c0.2,0.4-20.7,15.6-46.3,33.7
	c-25.7,18.2-48.5,34.3-50.7,36l-4,3v19l25.2,18c117.5,83.9,149.9,107,150.5,107c0.3,0,0.6-30.8,0.6-68.4v-68.5l-5.5-4l-5.6-4
	l9.3-6.7c10.8-7.7,8.4-7.9,20.9,1.3l6.9,5l-5.4,3.7c-3,2.1-5.7,4.2-6.1,4.7c-0.8,1-1.3,136.2-0.5,137.1c0.3,0.4,36.6-25.3,141-100
	l35.7-25.4v-17.6l-41.3-30.2c-55.2-40.4-59.4-43.6-58.9-44.5c0.2-0.5,1.9-1.9,3.9-3.2c1.8-1.4,24-17.3,49.2-35.5
	c59-42.5,107.9-77.6,111.2-79.7c2.1-1.3,3-1.4,4.4-0.5c1.9,1.3,179.5,128.5,285.6,204.7l66.7,47.9v508.5l-92.9,66.7
	c-75,53.8-203.8,146.2-252.2,180.9c-8,5.7-9.1,6.3-10.9,5.1c-3.8-2.5-103.2-73.8-128.1-91.9c-38.6-28.1-39-28.4-39-29
	c0-0.7,16.9-13.1,67.3-49.5l33.3-24v-56.9c-0.1-31.3-0.2-57.1-0.5-57.4c-0.2-0.3-0.9,0.1-1.6,0.8c-0.6,0.7-1.2,1-1.2,0.6
	c0-0.9-4.8,2.2-6.8,4.3c-0.8,0.9-1.7,1.5-2,1.5c-0.2-0.1-1.8,0.6-3.3,1.6c-4.7,3-65.3,46-82,58.2c-14,10.2-57.6,41.1-79.1,56l-8,5.5
	L652.2,930c-17.5-12.5-44-31.4-58.8-42c-29.7-21.3-50.3-36-73.9-52.9c-8.6-6.2-15.9-11.3-16.3-11.4c-0.7-0.2-1,58.2-0.2,59.1
	c0.2,0.3,0.4,13.4,0.4,29.1l-0.1,28.5l9.9,7.1c5.5,4,25.1,18.1,43.7,31.4c38.1,27.5,45.1,32.9,44.1,34.1
	c-0.8,0.9-65.3,47.4-126,90.9l-40.8,29.2l-74.2-53.2c-40.8-29.3-78.6-56.4-84.2-60.4c-25.6-18.4-143-102.7-166.4-119.5
	c-14.4-10.3-26.9-19.3-27.9-19.9l-1.8-1.2V624.7l0.1-254.2l122.8-88C356.9,171.8,433.8,117,434.7,117
	C434.9,117,450.8,128.3,470.2,142.1L470.2,142.1z"/>
<path class="st0" d="M502.6,350.4c-0.2,7.2,0.1,35,0.4,35.4c0.2,0.3,0.4,23.3,0.4,51.1c-0.1,39.9,0.2,50.7,1,51.6
	c0.6,0.7,30.7,22.4,67,48.2c92.5,66,107.3,76.4,107.7,76.4c0.2-0.1,0.5-30.8,0.5-68.4v-68.2L664,465.1
	c-21.2-15.6-158.7-114-160.2-114.7C503.1,350,502.6,350.1,502.6,350.4L502.6,350.4z"/>
<path class="st0" d="M852.7,361.7c-8.8,6.5-48.4,34.9-87.9,63.3L693,476.5l0.1,68.5c0,49.4,0.2,68.4,0.9,68.2
	c1-0.3,72.1-51,133.2-94.9l42.9-30.8V419c0-37.7-0.3-68.6-0.6-68.7C869,350.2,861.6,355.3,852.7,361.7L852.7,361.7z"/>
<path class="st0" d="M502.6,506.5c-0.2,6.2,0.1,34.9,0.4,35.3c0.2,0.3,0.4,23.5,0.4,51.6l-0.1,50.9l38.4,27.5
	c94.6,67.5,136.4,97.3,137.1,97.5c0.3,0.1,0.6-30.6,0.6-68.3l0.1-68.5l-14.3-10.4C636.1,601.1,503.3,506,503,506
	C502.7,506,502.6,506.2,502.6,506.5L502.6,506.5z"/>
<path class="st0" d="M864,509.8c-2.7,2-42.2,30.5-87.9,63.2l-83,59.6V701c0,37.6,0.1,68.5,0.2,68.6c0.2,0.2,18.2-12.4,40-27.9
	c85.2-60.7,133.1-95,134.8-96.5l1.8-1.7V575c-0.1-37.7-0.3-68.6-0.6-68.7C869,506.2,866.6,507.8,864,509.8L864,509.8z"/>
<path class="st0" d="M502.6,663.4c-0.2,7.2,0.1,36,0.4,36.4c0.2,0.3,0.4,23.3,0.4,51c0,27.8,0.2,50.9,0.6,51.3
	c0.6,0.6,40.8,29.4,136.4,97.6c21.2,15.1,38.7,27.3,38.8,27c0.2-0.2,0.3-30.9,0.3-68.2c0-53.5-0.2-68.1-1-69.1
	c-0.9-1-26.1-19.1-85.5-61.6c-51.2-36.7-85.5-61.3-87.8-63C503.8,663.7,502.6,663.1,502.6,663.4L502.6,663.4z"/>
<path class="st0" d="M855.1,673.7c-8,5.8-47.4,34.2-87.6,63c-40.2,28.9-73.4,52.8-73.8,53.2c-0.3,0.4-0.6,31.3-0.6,68.7
	c0,58.8,0.2,67.9,1.2,67.8c1.1-0.2,44.2-30.7,134.1-95.1l41.6-29.8l-0.1-68.9c0-37.9-0.1-69-0.2-69.1
	C869.7,663.3,863.1,668,855.1,673.7L855.1,673.7z"/>
</svg>
